# xmcd CD database file
#
# Track frame offsets:
#	150
#	14329
#	53249
#	75947
#	89006
#	112345
#	145652
#	174969
#	189007
#	212023
#	232753
#	288403
#
# Disc length: 4420 seconds
#
# Revision: 0
# Processed by: cddbd v1.5.2PL0 Copyright (c) Steve Scherf et al.
# Submitted via: CDex 1.51
#
DISCID=9611420c
DTITLE=Antonis Anissegos and Thymios Atzakas - σώμα
DYEAR=2009
DGENRE=Jazz
TTITLE0=trio2 ουςδακτυλ
TTITLE1=quartet ουςωκυριε
TTITLE2=quintet τωνποταμι
TTITLE3=quartet ωνπουσμιγ
TTITLE4=trio2 ουναφουτι
TTITLE5=quintet ποτανασεπ
TTITLE6=trio2 ληγωσειδε
TTITLE7=trio2 νμπορειαφ
TTITLE8=quintet ησεμενατρ
TTITLE9=quartet αγουδησωο
TTITLE10=quartet πωςμαρεσει
TTITLE11=Ταινία 2
EXTD=YEAR: 2009
EXTT0=
EXTT1=
EXTT2=
EXTT3=
EXTT4=
EXTT5=
EXTT6=
EXTT7=
EXTT8=
EXTT9=
EXTT10=
EXTT11=
PLAYORDER=
